<mxfile host="Electron" agent="Mozilla/5.0 (X11; Linux x86_64) AppleWebKit/537.36 (KHTML, like Gecko) draw.io/26.0.16 Chrome/132.0.6834.196 Electron/34.2.0 Safari/537.36" version="26.0.16">
  <diagram name="Page-1" id="0XOn6kjzRxYw0xI9TYpw">
    <mxGraphModel dx="1687" dy="1026" grid="1" gridSize="10" guides="1" tooltips="1" connect="1" arrows="1" fold="1" page="1" pageScale="1" pageWidth="360" pageHeight="440" math="0" shadow="0">
      <root>
        <mxCell id="0" />
        <mxCell id="1" parent="0" />
        <mxCell id="7x98fHGfV2n_sCn_JHf2-144" style="edgeStyle=orthogonalEdgeStyle;rounded=0;orthogonalLoop=1;jettySize=auto;html=1;endArrow=none;startFill=0;" edge="1" parent="1" source="EY2tNjRsGAf-GPTE77yY-1" target="EY2tNjRsGAf-GPTE77yY-3">
          <mxGeometry relative="1" as="geometry">
            <Array as="points">
              <mxPoint x="562.27" y="172" />
              <mxPoint x="562.27" y="172" />
            </Array>
          </mxGeometry>
        </mxCell>
        <mxCell id="7x98fHGfV2n_sCn_JHf2-145" style="edgeStyle=orthogonalEdgeStyle;rounded=0;orthogonalLoop=1;jettySize=auto;html=1;endArrow=none;startFill=0;" edge="1" parent="1" source="EY2tNjRsGAf-GPTE77yY-1" target="EY2tNjRsGAf-GPTE77yY-5">
          <mxGeometry relative="1" as="geometry">
            <Array as="points">
              <mxPoint x="513.27" y="163" />
              <mxPoint x="513.27" y="163" />
            </Array>
          </mxGeometry>
        </mxCell>
        <mxCell id="7x98fHGfV2n_sCn_JHf2-146" style="edgeStyle=orthogonalEdgeStyle;rounded=0;orthogonalLoop=1;jettySize=auto;html=1;exitX=0.75;exitY=0;exitDx=0;exitDy=0;endArrow=none;startFill=0;" edge="1" parent="1" source="EY2tNjRsGAf-GPTE77yY-1" target="EY2tNjRsGAf-GPTE77yY-74">
          <mxGeometry relative="1" as="geometry">
            <Array as="points">
              <mxPoint x="555.27" y="174" />
              <mxPoint x="555.27" y="114" />
              <mxPoint x="672.27" y="114" />
            </Array>
          </mxGeometry>
        </mxCell>
        <mxCell id="7x98fHGfV2n_sCn_JHf2-147" style="edgeStyle=orthogonalEdgeStyle;rounded=0;orthogonalLoop=1;jettySize=auto;html=1;endArrow=none;startFill=0;" edge="1" parent="1" source="EY2tNjRsGAf-GPTE77yY-1" target="EY2tNjRsGAf-GPTE77yY-4">
          <mxGeometry relative="1" as="geometry">
            <Array as="points">
              <mxPoint x="551.27" y="110" />
              <mxPoint x="753.27" y="110" />
            </Array>
          </mxGeometry>
        </mxCell>
        <mxCell id="7x98fHGfV2n_sCn_JHf2-148" style="edgeStyle=orthogonalEdgeStyle;rounded=0;orthogonalLoop=1;jettySize=auto;html=1;endArrow=none;startFill=0;" edge="1" parent="1" source="EY2tNjRsGAf-GPTE77yY-1" target="EY2tNjRsGAf-GPTE77yY-67">
          <mxGeometry relative="1" as="geometry">
            <Array as="points">
              <mxPoint x="546.27" y="105" />
              <mxPoint x="830.27" y="105" />
            </Array>
          </mxGeometry>
        </mxCell>
        <mxCell id="7x98fHGfV2n_sCn_JHf2-149" style="edgeStyle=orthogonalEdgeStyle;rounded=0;orthogonalLoop=1;jettySize=auto;html=1;endArrow=none;startFill=0;" edge="1" parent="1" source="EY2tNjRsGAf-GPTE77yY-1" target="7x98fHGfV2n_sCn_JHf2-92">
          <mxGeometry relative="1" as="geometry">
            <Array as="points">
              <mxPoint x="521.27" y="120" />
              <mxPoint x="382.27" y="120" />
            </Array>
          </mxGeometry>
        </mxCell>
        <mxCell id="7x98fHGfV2n_sCn_JHf2-150" style="edgeStyle=orthogonalEdgeStyle;rounded=0;orthogonalLoop=1;jettySize=auto;html=1;endArrow=none;startFill=0;" edge="1" parent="1" source="EY2tNjRsGAf-GPTE77yY-1" target="EY2tNjRsGAf-GPTE77yY-64">
          <mxGeometry relative="1" as="geometry">
            <Array as="points">
              <mxPoint x="526.27" y="115" />
              <mxPoint x="298.27" y="115" />
            </Array>
          </mxGeometry>
        </mxCell>
        <mxCell id="7x98fHGfV2n_sCn_JHf2-151" style="edgeStyle=orthogonalEdgeStyle;rounded=0;orthogonalLoop=1;jettySize=auto;html=1;endArrow=none;startFill=0;" edge="1" parent="1" source="EY2tNjRsGAf-GPTE77yY-1">
          <mxGeometry relative="1" as="geometry">
            <mxPoint x="217.24242424242425" y="127.00529902549113" as="targetPoint" />
            <Array as="points">
              <mxPoint x="531.27" y="109" />
              <mxPoint x="217.26999999999998" y="109" />
            </Array>
          </mxGeometry>
        </mxCell>
        <mxCell id="7x98fHGfV2n_sCn_JHf2-152" style="edgeStyle=orthogonalEdgeStyle;rounded=0;orthogonalLoop=1;jettySize=auto;html=1;endArrow=none;startFill=0;" edge="1" parent="1" source="EY2tNjRsGAf-GPTE77yY-1" target="EY2tNjRsGAf-GPTE77yY-231">
          <mxGeometry relative="1" as="geometry">
            <Array as="points">
              <mxPoint x="536.27" y="80" />
            </Array>
          </mxGeometry>
        </mxCell>
        <mxCell id="7x98fHGfV2n_sCn_JHf2-153" style="edgeStyle=orthogonalEdgeStyle;rounded=0;orthogonalLoop=1;jettySize=auto;html=1;endArrow=none;startFill=0;" edge="1" parent="1" source="EY2tNjRsGAf-GPTE77yY-1" target="EY2tNjRsGAf-GPTE77yY-2">
          <mxGeometry relative="1" as="geometry">
            <Array as="points">
              <mxPoint x="541.27" y="80" />
            </Array>
          </mxGeometry>
        </mxCell>
        <mxCell id="7x98fHGfV2n_sCn_JHf2-161" style="edgeStyle=orthogonalEdgeStyle;rounded=0;orthogonalLoop=1;jettySize=auto;html=1;endArrow=none;startFill=0;" edge="1" parent="1" source="EY2tNjRsGAf-GPTE77yY-1" target="7x98fHGfV2n_sCn_JHf2-137">
          <mxGeometry relative="1" as="geometry" />
        </mxCell>
        <mxCell id="7x98fHGfV2n_sCn_JHf2-162" style="edgeStyle=orthogonalEdgeStyle;rounded=0;orthogonalLoop=1;jettySize=auto;html=1;endArrow=none;startFill=0;" edge="1" parent="1" source="EY2tNjRsGAf-GPTE77yY-1" target="7x98fHGfV2n_sCn_JHf2-134">
          <mxGeometry relative="1" as="geometry" />
        </mxCell>
        <mxCell id="7x98fHGfV2n_sCn_JHf2-163" style="edgeStyle=orthogonalEdgeStyle;rounded=0;orthogonalLoop=1;jettySize=auto;html=1;endArrow=none;startFill=0;" edge="1" parent="1" source="EY2tNjRsGAf-GPTE77yY-1" target="7x98fHGfV2n_sCn_JHf2-122">
          <mxGeometry relative="1" as="geometry">
            <Array as="points">
              <mxPoint x="496" y="210" />
              <mxPoint x="258" y="210" />
            </Array>
          </mxGeometry>
        </mxCell>
        <mxCell id="7x98fHGfV2n_sCn_JHf2-164" style="edgeStyle=orthogonalEdgeStyle;rounded=0;orthogonalLoop=1;jettySize=auto;html=1;exitX=0.75;exitY=1;exitDx=0;exitDy=0;endArrow=none;startFill=0;" edge="1" parent="1" source="EY2tNjRsGAf-GPTE77yY-1" target="7x98fHGfV2n_sCn_JHf2-132">
          <mxGeometry relative="1" as="geometry">
            <Array as="points">
              <mxPoint x="581" y="204" />
              <mxPoint x="581" y="210" />
              <mxPoint x="820" y="210" />
            </Array>
          </mxGeometry>
        </mxCell>
        <mxCell id="7x98fHGfV2n_sCn_JHf2-165" style="edgeStyle=orthogonalEdgeStyle;rounded=0;orthogonalLoop=1;jettySize=auto;html=1;endArrow=none;startFill=0;" edge="1" parent="1" source="EY2tNjRsGAf-GPTE77yY-1" target="7x98fHGfV2n_sCn_JHf2-119">
          <mxGeometry relative="1" as="geometry">
            <Array as="points">
              <mxPoint x="505" y="220" />
              <mxPoint x="408" y="220" />
            </Array>
          </mxGeometry>
        </mxCell>
        <mxCell id="7x98fHGfV2n_sCn_JHf2-166" style="edgeStyle=orthogonalEdgeStyle;rounded=0;orthogonalLoop=1;jettySize=auto;html=1;exitX=0.75;exitY=1;exitDx=0;exitDy=0;endArrow=none;startFill=0;" edge="1" parent="1" source="EY2tNjRsGAf-GPTE77yY-1" target="7x98fHGfV2n_sCn_JHf2-128">
          <mxGeometry relative="1" as="geometry">
            <Array as="points">
              <mxPoint x="562" y="220" />
              <mxPoint x="684" y="220" />
            </Array>
          </mxGeometry>
        </mxCell>
        <mxCell id="7x98fHGfV2n_sCn_JHf2-167" style="edgeStyle=orthogonalEdgeStyle;rounded=0;orthogonalLoop=1;jettySize=auto;html=1;exitX=0.5;exitY=1;exitDx=0;exitDy=0;endArrow=none;startFill=0;" edge="1" parent="1" source="EY2tNjRsGAf-GPTE77yY-1" target="7x98fHGfV2n_sCn_JHf2-126">
          <mxGeometry relative="1" as="geometry" />
        </mxCell>
        <mxCell id="EY2tNjRsGAf-GPTE77yY-1" value="Person" style="rounded=0;whiteSpace=wrap;html=1;" parent="1" vertex="1">
          <mxGeometry x="488.27" y="174" width="98" height="30" as="geometry" />
        </mxCell>
        <mxCell id="7x98fHGfV2n_sCn_JHf2-155" style="edgeStyle=orthogonalEdgeStyle;rounded=0;orthogonalLoop=1;jettySize=auto;html=1;endArrow=none;startFill=0;" edge="1" parent="1" source="EY2tNjRsGAf-GPTE77yY-2" target="EY2tNjRsGAf-GPTE77yY-15">
          <mxGeometry relative="1" as="geometry" />
        </mxCell>
        <mxCell id="7x98fHGfV2n_sCn_JHf2-159" style="edgeStyle=orthogonalEdgeStyle;rounded=0;orthogonalLoop=1;jettySize=auto;html=1;endArrow=none;startFill=0;" edge="1" parent="1" source="EY2tNjRsGAf-GPTE77yY-2" target="EY2tNjRsGAf-GPTE77yY-16">
          <mxGeometry relative="1" as="geometry">
            <Array as="points">
              <mxPoint x="593.27" y="44" />
              <mxPoint x="771.27" y="44" />
            </Array>
          </mxGeometry>
        </mxCell>
        <mxCell id="EY2tNjRsGAf-GPTE77yY-2" value="name" style="ellipse;whiteSpace=wrap;html=1;" parent="1" vertex="1">
          <mxGeometry x="558.27" y="65" width="70" height="30" as="geometry" />
        </mxCell>
        <mxCell id="EY2tNjRsGAf-GPTE77yY-4" value="email" style="ellipse;whiteSpace=wrap;html=1;" parent="1" vertex="1">
          <mxGeometry x="723.52" y="124" width="60" height="30" as="geometry" />
        </mxCell>
        <mxCell id="EY2tNjRsGAf-GPTE77yY-5" value="username" style="ellipse;whiteSpace=wrap;html=1;" parent="1" vertex="1">
          <mxGeometry x="438.27" y="124" width="80" height="30" as="geometry" />
        </mxCell>
        <mxCell id="EY2tNjRsGAf-GPTE77yY-15" value="FName" style="ellipse;whiteSpace=wrap;html=1;" parent="1" vertex="1">
          <mxGeometry x="648.52" y="64" width="70" height="30" as="geometry" />
        </mxCell>
        <mxCell id="EY2tNjRsGAf-GPTE77yY-16" value="LName" style="ellipse;whiteSpace=wrap;html=1;" parent="1" vertex="1">
          <mxGeometry x="736.27" y="65" width="70" height="30" as="geometry" />
        </mxCell>
        <mxCell id="EY2tNjRsGAf-GPTE77yY-3" value="PID" style="ellipse;whiteSpace=wrap;html=1;" parent="1" vertex="1">
          <mxGeometry x="558.27" y="124" width="60" height="30" as="geometry" />
        </mxCell>
        <mxCell id="EY2tNjRsGAf-GPTE77yY-24" value="Numb" style="ellipse;whiteSpace=wrap;html=1;" parent="1" vertex="1">
          <mxGeometry x="187" y="124" width="60" height="30" as="geometry" />
        </mxCell>
        <mxCell id="EY2tNjRsGAf-GPTE77yY-28" value="" style="endArrow=none;html=1;rounded=0;entryX=0.143;entryY=0.75;entryDx=0;entryDy=0;entryPerimeter=0;" parent="1" edge="1">
          <mxGeometry width="50" height="50" relative="1" as="geometry">
            <mxPoint x="600.77" y="148" as="sourcePoint" />
            <mxPoint x="576.77" y="148" as="targetPoint" />
          </mxGeometry>
        </mxCell>
        <mxCell id="EY2tNjRsGAf-GPTE77yY-64" value="gender" style="ellipse;whiteSpace=wrap;html=1;" parent="1" vertex="1">
          <mxGeometry x="268.27" y="124" width="60" height="30" as="geometry" />
        </mxCell>
        <mxCell id="EY2tNjRsGAf-GPTE77yY-67" value="age" style="ellipse;whiteSpace=wrap;html=1;dashed=1;" parent="1" vertex="1">
          <mxGeometry x="800.27" y="124" width="60" height="30" as="geometry" />
        </mxCell>
        <mxCell id="EY2tNjRsGAf-GPTE77yY-74" value="timestamp" style="ellipse;whiteSpace=wrap;html=1;" parent="1" vertex="1">
          <mxGeometry x="638.27" y="124" width="68" height="30" as="geometry" />
        </mxCell>
        <mxCell id="7x98fHGfV2n_sCn_JHf2-154" style="edgeStyle=orthogonalEdgeStyle;rounded=0;orthogonalLoop=1;jettySize=auto;html=1;" edge="1" parent="1" source="EY2tNjRsGAf-GPTE77yY-231" target="EY2tNjRsGAf-GPTE77yY-234">
          <mxGeometry relative="1" as="geometry">
            <Array as="points" />
          </mxGeometry>
        </mxCell>
        <mxCell id="7x98fHGfV2n_sCn_JHf2-156" style="edgeStyle=orthogonalEdgeStyle;rounded=0;orthogonalLoop=1;jettySize=auto;html=1;endArrow=none;startFill=0;" edge="1" parent="1" source="EY2tNjRsGAf-GPTE77yY-231" target="EY2tNjRsGAf-GPTE77yY-236">
          <mxGeometry relative="1" as="geometry">
            <Array as="points">
              <mxPoint x="468.27" y="54" />
              <mxPoint x="326.27" y="54" />
            </Array>
          </mxGeometry>
        </mxCell>
        <mxCell id="7x98fHGfV2n_sCn_JHf2-157" style="edgeStyle=orthogonalEdgeStyle;rounded=0;orthogonalLoop=1;jettySize=auto;html=1;endArrow=none;startFill=0;" edge="1" parent="1" source="EY2tNjRsGAf-GPTE77yY-231" target="EY2tNjRsGAf-GPTE77yY-235">
          <mxGeometry relative="1" as="geometry">
            <Array as="points">
              <mxPoint x="476.27" y="48" />
              <mxPoint x="278.27" y="48" />
            </Array>
          </mxGeometry>
        </mxCell>
        <mxCell id="7x98fHGfV2n_sCn_JHf2-158" style="edgeStyle=orthogonalEdgeStyle;rounded=0;orthogonalLoop=1;jettySize=auto;html=1;endArrow=none;startFill=0;" edge="1" parent="1" source="EY2tNjRsGAf-GPTE77yY-231" target="EY2tNjRsGAf-GPTE77yY-241">
          <mxGeometry relative="1" as="geometry">
            <mxPoint x="483.27" y="24" as="targetPoint" />
            <Array as="points">
              <mxPoint x="483.27" y="40" />
              <mxPoint x="193.26999999999998" y="40" />
            </Array>
          </mxGeometry>
        </mxCell>
        <mxCell id="7x98fHGfV2n_sCn_JHf2-160" style="edgeStyle=orthogonalEdgeStyle;rounded=0;orthogonalLoop=1;jettySize=auto;html=1;" edge="1" parent="1" source="EY2tNjRsGAf-GPTE77yY-231" target="EY2tNjRsGAf-GPTE77yY-234">
          <mxGeometry relative="1" as="geometry" />
        </mxCell>
        <mxCell id="EY2tNjRsGAf-GPTE77yY-231" value="address" style="ellipse;whiteSpace=wrap;html=1;" parent="1" vertex="1">
          <mxGeometry x="448.27" y="65" width="70" height="30" as="geometry" />
        </mxCell>
        <mxCell id="EY2tNjRsGAf-GPTE77yY-234" value="street" style="ellipse;whiteSpace=wrap;html=1;" parent="1" vertex="1">
          <mxGeometry x="368.03" y="69.37" width="70" height="21.25" as="geometry" />
        </mxCell>
        <mxCell id="EY2tNjRsGAf-GPTE77yY-235" value="zip" style="ellipse;whiteSpace=wrap;html=1;" parent="1" vertex="1">
          <mxGeometry x="228" y="70.12" width="60" height="20.5" as="geometry" />
        </mxCell>
        <mxCell id="EY2tNjRsGAf-GPTE77yY-236" value="city" style="ellipse;whiteSpace=wrap;html=1;" parent="1" vertex="1">
          <mxGeometry x="298" y="67.5" width="56.5" height="25" as="geometry" />
        </mxCell>
        <mxCell id="EY2tNjRsGAf-GPTE77yY-241" value="&lt;label for=&quot;country&quot;&gt;region&lt;/label&gt;" style="ellipse;whiteSpace=wrap;html=1;" parent="1" vertex="1">
          <mxGeometry x="168" y="65" width="50" height="30" as="geometry" />
        </mxCell>
        <mxCell id="7x98fHGfV2n_sCn_JHf2-3" style="edgeStyle=orthogonalEdgeStyle;rounded=0;orthogonalLoop=1;jettySize=auto;html=1;endArrow=none;startFill=0;" edge="1" parent="1" source="RrSn-xgYiSu3ErkupoAv-3" target="7x98fHGfV2n_sCn_JHf2-1">
          <mxGeometry relative="1" as="geometry">
            <Array as="points">
              <mxPoint x="99" y="519" />
              <mxPoint x="99" y="519" />
            </Array>
          </mxGeometry>
        </mxCell>
        <mxCell id="RrSn-xgYiSu3ErkupoAv-3" value="Me" style="ellipse;whiteSpace=wrap;html=1;" parent="1" vertex="1">
          <mxGeometry x="96" y="529" width="63" height="28" as="geometry" />
        </mxCell>
        <mxCell id="RrSn-xgYiSu3ErkupoAv-10" value="status" style="ellipse;whiteSpace=wrap;html=1;" parent="1" vertex="1">
          <mxGeometry x="94" y="619" width="65" height="28" as="geometry" />
        </mxCell>
        <mxCell id="RrSn-xgYiSu3ErkupoAv-18" value="timestamp" style="ellipse;whiteSpace=wrap;html=1;" parent="1" vertex="1">
          <mxGeometry x="91" y="663.5" width="68" height="28" as="geometry" />
        </mxCell>
        <mxCell id="7x98fHGfV2n_sCn_JHf2-5" style="edgeStyle=orthogonalEdgeStyle;rounded=0;orthogonalLoop=1;jettySize=auto;html=1;endArrow=none;startFill=0;" edge="1" parent="1" source="7x98fHGfV2n_sCn_JHf2-1" target="7x98fHGfV2n_sCn_JHf2-2">
          <mxGeometry relative="1" as="geometry">
            <Array as="points">
              <mxPoint x="89" y="588" />
            </Array>
          </mxGeometry>
        </mxCell>
        <mxCell id="7x98fHGfV2n_sCn_JHf2-6" style="edgeStyle=orthogonalEdgeStyle;rounded=0;orthogonalLoop=1;jettySize=auto;html=1;endArrow=none;startFill=0;" edge="1" parent="1" source="7x98fHGfV2n_sCn_JHf2-1" target="RrSn-xgYiSu3ErkupoAv-10">
          <mxGeometry relative="1" as="geometry">
            <Array as="points">
              <mxPoint x="79" y="633" />
            </Array>
          </mxGeometry>
        </mxCell>
        <mxCell id="7x98fHGfV2n_sCn_JHf2-7" style="edgeStyle=orthogonalEdgeStyle;rounded=0;orthogonalLoop=1;jettySize=auto;html=1;endArrow=none;startFill=0;" edge="1" parent="1" source="7x98fHGfV2n_sCn_JHf2-1" target="RrSn-xgYiSu3ErkupoAv-18">
          <mxGeometry relative="1" as="geometry">
            <Array as="points">
              <mxPoint x="69" y="678" />
            </Array>
          </mxGeometry>
        </mxCell>
        <mxCell id="7x98fHGfV2n_sCn_JHf2-1" value="Friend" style="rounded=0;whiteSpace=wrap;html=1;" vertex="1" parent="1">
          <mxGeometry x="61" y="479" width="98" height="30" as="geometry" />
        </mxCell>
        <mxCell id="7x98fHGfV2n_sCn_JHf2-2" value="FID" style="ellipse;whiteSpace=wrap;html=1;" vertex="1" parent="1">
          <mxGeometry x="96" y="573.97" width="63" height="28" as="geometry" />
        </mxCell>
        <mxCell id="7x98fHGfV2n_sCn_JHf2-17" style="edgeStyle=orthogonalEdgeStyle;rounded=0;orthogonalLoop=1;jettySize=auto;html=1;exitX=0.25;exitY=1;exitDx=0;exitDy=0;endArrow=none;startFill=0;" edge="1" parent="1" source="7x98fHGfV2n_sCn_JHf2-8" target="7x98fHGfV2n_sCn_JHf2-10">
          <mxGeometry relative="1" as="geometry">
            <Array as="points">
              <mxPoint x="233.26999999999998" y="569" />
            </Array>
          </mxGeometry>
        </mxCell>
        <mxCell id="7x98fHGfV2n_sCn_JHf2-18" style="edgeStyle=orthogonalEdgeStyle;rounded=0;orthogonalLoop=1;jettySize=auto;html=1;endArrow=none;startFill=0;" edge="1" parent="1" source="7x98fHGfV2n_sCn_JHf2-8" target="7x98fHGfV2n_sCn_JHf2-11">
          <mxGeometry relative="1" as="geometry">
            <Array as="points">
              <mxPoint x="227.26999999999998" y="603" />
            </Array>
          </mxGeometry>
        </mxCell>
        <mxCell id="7x98fHGfV2n_sCn_JHf2-19" style="edgeStyle=orthogonalEdgeStyle;rounded=0;orthogonalLoop=1;jettySize=auto;html=1;endArrow=none;startFill=0;" edge="1" parent="1" source="7x98fHGfV2n_sCn_JHf2-8" target="7x98fHGfV2n_sCn_JHf2-12">
          <mxGeometry relative="1" as="geometry">
            <Array as="points">
              <mxPoint x="221.26999999999998" y="640" />
            </Array>
          </mxGeometry>
        </mxCell>
        <mxCell id="7x98fHGfV2n_sCn_JHf2-21" style="edgeStyle=orthogonalEdgeStyle;rounded=0;orthogonalLoop=1;jettySize=auto;html=1;endArrow=none;startFill=0;" edge="1" parent="1" source="7x98fHGfV2n_sCn_JHf2-8" target="7x98fHGfV2n_sCn_JHf2-13">
          <mxGeometry relative="1" as="geometry">
            <Array as="points">
              <mxPoint x="215.26999999999998" y="679" />
            </Array>
          </mxGeometry>
        </mxCell>
        <mxCell id="7x98fHGfV2n_sCn_JHf2-22" style="edgeStyle=orthogonalEdgeStyle;rounded=0;orthogonalLoop=1;jettySize=auto;html=1;endArrow=none;startFill=0;" edge="1" parent="1" source="7x98fHGfV2n_sCn_JHf2-8" target="7x98fHGfV2n_sCn_JHf2-14">
          <mxGeometry relative="1" as="geometry">
            <Array as="points">
              <mxPoint x="209.26999999999998" y="723" />
            </Array>
          </mxGeometry>
        </mxCell>
        <mxCell id="7x98fHGfV2n_sCn_JHf2-186" style="edgeStyle=orthogonalEdgeStyle;rounded=0;orthogonalLoop=1;jettySize=auto;html=1;endArrow=none;startFill=0;" edge="1" parent="1" source="7x98fHGfV2n_sCn_JHf2-8" target="7x98fHGfV2n_sCn_JHf2-199">
          <mxGeometry relative="1" as="geometry">
            <mxPoint x="331" y="795" as="targetPoint" />
            <Array as="points">
              <mxPoint x="321" y="485" />
              <mxPoint x="321" y="765" />
            </Array>
          </mxGeometry>
        </mxCell>
        <mxCell id="7x98fHGfV2n_sCn_JHf2-8" value="Media" style="rounded=0;whiteSpace=wrap;html=1;" vertex="1" parent="1">
          <mxGeometry x="209" y="470" width="98" height="30" as="geometry" />
        </mxCell>
        <mxCell id="7x98fHGfV2n_sCn_JHf2-16" style="edgeStyle=orthogonalEdgeStyle;rounded=0;orthogonalLoop=1;jettySize=auto;html=1;endArrow=none;startFill=0;" edge="1" parent="1" source="7x98fHGfV2n_sCn_JHf2-9" target="7x98fHGfV2n_sCn_JHf2-8">
          <mxGeometry relative="1" as="geometry">
            <Array as="points">
              <mxPoint x="241.26999999999998" y="532" />
            </Array>
          </mxGeometry>
        </mxCell>
        <mxCell id="7x98fHGfV2n_sCn_JHf2-9" value="MID" style="ellipse;whiteSpace=wrap;html=1;" vertex="1" parent="1">
          <mxGeometry x="244" y="517.97" width="63" height="28" as="geometry" />
        </mxCell>
        <mxCell id="7x98fHGfV2n_sCn_JHf2-10" value="name" style="ellipse;whiteSpace=wrap;html=1;" vertex="1" parent="1">
          <mxGeometry x="244" y="554" width="63" height="28" as="geometry" />
        </mxCell>
        <mxCell id="7x98fHGfV2n_sCn_JHf2-11" value="info" style="ellipse;whiteSpace=wrap;html=1;" vertex="1" parent="1">
          <mxGeometry x="244" y="589" width="63" height="28" as="geometry" />
        </mxCell>
        <mxCell id="7x98fHGfV2n_sCn_JHf2-12" value="size" style="ellipse;whiteSpace=wrap;html=1;" vertex="1" parent="1">
          <mxGeometry x="244" y="626" width="63" height="28" as="geometry" />
        </mxCell>
        <mxCell id="7x98fHGfV2n_sCn_JHf2-13" value="type" style="ellipse;whiteSpace=wrap;html=1;" vertex="1" parent="1">
          <mxGeometry x="244" y="663" width="63" height="28" as="geometry" />
        </mxCell>
        <mxCell id="7x98fHGfV2n_sCn_JHf2-14" value="timestamp" style="ellipse;whiteSpace=wrap;html=1;" vertex="1" parent="1">
          <mxGeometry x="241.5" y="709" width="68" height="28" as="geometry" />
        </mxCell>
        <mxCell id="7x98fHGfV2n_sCn_JHf2-23" style="edgeStyle=orthogonalEdgeStyle;rounded=0;orthogonalLoop=1;jettySize=auto;html=1;exitX=0.25;exitY=1;exitDx=0;exitDy=0;endArrow=none;startFill=0;" edge="1" parent="1" source="7x98fHGfV2n_sCn_JHf2-28" target="7x98fHGfV2n_sCn_JHf2-31">
          <mxGeometry relative="1" as="geometry">
            <Array as="points">
              <mxPoint x="384.03" y="531" />
            </Array>
          </mxGeometry>
        </mxCell>
        <mxCell id="7x98fHGfV2n_sCn_JHf2-24" style="edgeStyle=orthogonalEdgeStyle;rounded=0;orthogonalLoop=1;jettySize=auto;html=1;endArrow=none;startFill=0;" edge="1" parent="1" source="7x98fHGfV2n_sCn_JHf2-28" target="7x98fHGfV2n_sCn_JHf2-32">
          <mxGeometry relative="1" as="geometry">
            <Array as="points">
              <mxPoint x="377.03" y="565" />
            </Array>
          </mxGeometry>
        </mxCell>
        <mxCell id="7x98fHGfV2n_sCn_JHf2-25" style="edgeStyle=orthogonalEdgeStyle;rounded=0;orthogonalLoop=1;jettySize=auto;html=1;endArrow=none;startFill=0;" edge="1" parent="1" source="7x98fHGfV2n_sCn_JHf2-28" target="7x98fHGfV2n_sCn_JHf2-33">
          <mxGeometry relative="1" as="geometry">
            <Array as="points">
              <mxPoint x="369.03" y="601" />
            </Array>
          </mxGeometry>
        </mxCell>
        <mxCell id="7x98fHGfV2n_sCn_JHf2-27" style="edgeStyle=orthogonalEdgeStyle;rounded=0;orthogonalLoop=1;jettySize=auto;html=1;endArrow=none;startFill=0;" edge="1" parent="1" source="7x98fHGfV2n_sCn_JHf2-28" target="7x98fHGfV2n_sCn_JHf2-35">
          <mxGeometry relative="1" as="geometry">
            <Array as="points">
              <mxPoint x="359.03" y="639" />
            </Array>
          </mxGeometry>
        </mxCell>
        <mxCell id="7x98fHGfV2n_sCn_JHf2-183" style="edgeStyle=orthogonalEdgeStyle;rounded=0;orthogonalLoop=1;jettySize=auto;html=1;endArrow=none;startFill=0;" edge="1" parent="1" source="7x98fHGfV2n_sCn_JHf2-28" target="7x98fHGfV2n_sCn_JHf2-187">
          <mxGeometry relative="1" as="geometry">
            <mxPoint x="591" y="715" as="targetPoint" />
            <mxPoint x="448.03" y="454" as="sourcePoint" />
            <Array as="points">
              <mxPoint x="501" y="475" />
              <mxPoint x="501" y="675" />
              <mxPoint x="571" y="675" />
              <mxPoint x="571" y="695" />
            </Array>
          </mxGeometry>
        </mxCell>
        <mxCell id="7x98fHGfV2n_sCn_JHf2-188" style="edgeStyle=orthogonalEdgeStyle;rounded=0;orthogonalLoop=1;jettySize=auto;html=1;endArrow=none;startFill=0;" edge="1" parent="1" source="7x98fHGfV2n_sCn_JHf2-28" target="7x98fHGfV2n_sCn_JHf2-191">
          <mxGeometry relative="1" as="geometry">
            <mxPoint x="790.9999999999998" y="755.6896551724138" as="targetPoint" />
            <Array as="points">
              <mxPoint x="481" y="483" />
              <mxPoint x="481" y="675" />
              <mxPoint x="441" y="675" />
              <mxPoint x="441" y="775" />
              <mxPoint x="811" y="775" />
            </Array>
          </mxGeometry>
        </mxCell>
        <mxCell id="7x98fHGfV2n_sCn_JHf2-200" style="edgeStyle=orthogonalEdgeStyle;rounded=0;orthogonalLoop=1;jettySize=auto;html=1;exitX=1;exitY=0.75;exitDx=0;exitDy=0;endArrow=none;startFill=0;" edge="1" parent="1" source="7x98fHGfV2n_sCn_JHf2-28" target="7x98fHGfV2n_sCn_JHf2-199">
          <mxGeometry relative="1" as="geometry">
            <Array as="points">
              <mxPoint x="457" y="495" />
              <mxPoint x="471" y="495" />
              <mxPoint x="471" y="665" />
              <mxPoint x="411" y="665" />
              <mxPoint x="411" y="765" />
            </Array>
          </mxGeometry>
        </mxCell>
        <mxCell id="7x98fHGfV2n_sCn_JHf2-206" style="edgeStyle=orthogonalEdgeStyle;rounded=0;orthogonalLoop=1;jettySize=auto;html=1;exitX=1;exitY=0.25;exitDx=0;exitDy=0;" edge="1" parent="1" source="7x98fHGfV2n_sCn_JHf2-28">
          <mxGeometry relative="1" as="geometry">
            <mxPoint x="491" y="725" as="targetPoint" />
            <Array as="points">
              <mxPoint x="457" y="478" />
              <mxPoint x="491" y="478" />
            </Array>
          </mxGeometry>
        </mxCell>
        <mxCell id="7x98fHGfV2n_sCn_JHf2-209" style="edgeStyle=orthogonalEdgeStyle;rounded=0;orthogonalLoop=1;jettySize=auto;html=1;endArrow=none;startFill=0;" edge="1" parent="1" source="7x98fHGfV2n_sCn_JHf2-28" target="7x98fHGfV2n_sCn_JHf2-210">
          <mxGeometry relative="1" as="geometry">
            <mxPoint x="851" y="735" as="targetPoint" />
            <Array as="points">
              <mxPoint x="476" y="489" />
              <mxPoint x="476" y="670" />
              <mxPoint x="431" y="670" />
              <mxPoint x="431" y="785" />
              <mxPoint x="896" y="785" />
            </Array>
          </mxGeometry>
        </mxCell>
        <mxCell id="7x98fHGfV2n_sCn_JHf2-28" value="Post" style="rounded=0;whiteSpace=wrap;html=1;" vertex="1" parent="1">
          <mxGeometry x="359.03" y="471" width="98" height="30" as="geometry" />
        </mxCell>
        <mxCell id="7x98fHGfV2n_sCn_JHf2-31" value="POID" style="ellipse;whiteSpace=wrap;html=1;" vertex="1" parent="1">
          <mxGeometry x="394.03" y="516" width="63" height="28" as="geometry" />
        </mxCell>
        <mxCell id="7x98fHGfV2n_sCn_JHf2-32" value="title" style="ellipse;whiteSpace=wrap;html=1;" vertex="1" parent="1">
          <mxGeometry x="394.03" y="551" width="63" height="28" as="geometry" />
        </mxCell>
        <mxCell id="7x98fHGfV2n_sCn_JHf2-33" value="desc" style="ellipse;whiteSpace=wrap;html=1;" vertex="1" parent="1">
          <mxGeometry x="394.03" y="588" width="63" height="28" as="geometry" />
        </mxCell>
        <mxCell id="7x98fHGfV2n_sCn_JHf2-35" value="timestamp" style="ellipse;whiteSpace=wrap;html=1;" vertex="1" parent="1">
          <mxGeometry x="391.53" y="622" width="68" height="28" as="geometry" />
        </mxCell>
        <mxCell id="7x98fHGfV2n_sCn_JHf2-36" value="" style="endArrow=none;html=1;rounded=0;" edge="1" parent="1">
          <mxGeometry width="50" height="50" relative="1" as="geometry">
            <mxPoint x="259.5" y="539" as="sourcePoint" />
            <mxPoint x="290" y="540" as="targetPoint" />
          </mxGeometry>
        </mxCell>
        <mxCell id="7x98fHGfV2n_sCn_JHf2-38" style="edgeStyle=orthogonalEdgeStyle;rounded=0;orthogonalLoop=1;jettySize=auto;html=1;endArrow=none;startFill=0;" edge="1" parent="1" source="7x98fHGfV2n_sCn_JHf2-41" target="7x98fHGfV2n_sCn_JHf2-45">
          <mxGeometry relative="1" as="geometry">
            <Array as="points">
              <mxPoint x="518" y="570" />
            </Array>
            <mxPoint x="517.77" y="469" as="sourcePoint" />
            <mxPoint x="542.0017127548508" y="609" as="targetPoint" />
          </mxGeometry>
        </mxCell>
        <mxCell id="7x98fHGfV2n_sCn_JHf2-40" style="edgeStyle=orthogonalEdgeStyle;rounded=0;orthogonalLoop=1;jettySize=auto;html=1;endArrow=none;startFill=0;" edge="1" parent="1" source="7x98fHGfV2n_sCn_JHf2-41" target="7x98fHGfV2n_sCn_JHf2-47">
          <mxGeometry relative="1" as="geometry">
            <Array as="points">
              <mxPoint x="512" y="607" />
            </Array>
          </mxGeometry>
        </mxCell>
        <mxCell id="7x98fHGfV2n_sCn_JHf2-184" style="edgeStyle=orthogonalEdgeStyle;rounded=0;orthogonalLoop=1;jettySize=auto;html=1;endArrow=none;startFill=0;" edge="1" parent="1" source="7x98fHGfV2n_sCn_JHf2-41" target="7x98fHGfV2n_sCn_JHf2-187">
          <mxGeometry relative="1" as="geometry">
            <mxPoint x="620.9999999999998" y="755" as="targetPoint" />
            <Array as="points">
              <mxPoint x="619" y="485" />
              <mxPoint x="619" y="645" />
              <mxPoint x="652" y="645" />
            </Array>
          </mxGeometry>
        </mxCell>
        <mxCell id="7x98fHGfV2n_sCn_JHf2-41" value="Reaction" style="rounded=0;whiteSpace=wrap;html=1;" vertex="1" parent="1">
          <mxGeometry x="511.27" y="472" width="98" height="30" as="geometry" />
        </mxCell>
        <mxCell id="7x98fHGfV2n_sCn_JHf2-42" style="edgeStyle=orthogonalEdgeStyle;rounded=0;orthogonalLoop=1;jettySize=auto;html=1;endArrow=none;startFill=0;" edge="1" parent="1" source="7x98fHGfV2n_sCn_JHf2-43" target="7x98fHGfV2n_sCn_JHf2-41">
          <mxGeometry relative="1" as="geometry">
            <Array as="points">
              <mxPoint x="533" y="535" />
            </Array>
            <mxPoint x="545.29" y="530.037275312821" as="sourcePoint" />
            <mxPoint x="545.29" y="469" as="targetPoint" />
          </mxGeometry>
        </mxCell>
        <mxCell id="7x98fHGfV2n_sCn_JHf2-43" value="RID" style="ellipse;whiteSpace=wrap;html=1;" vertex="1" parent="1">
          <mxGeometry x="546.27" y="520.97" width="63" height="28" as="geometry" />
        </mxCell>
        <mxCell id="7x98fHGfV2n_sCn_JHf2-45" value="reaction" style="ellipse;whiteSpace=wrap;html=1;" vertex="1" parent="1">
          <mxGeometry x="546.27" y="557" width="63" height="28" as="geometry" />
        </mxCell>
        <mxCell id="7x98fHGfV2n_sCn_JHf2-47" value="timestamp" style="ellipse;whiteSpace=wrap;html=1;" vertex="1" parent="1">
          <mxGeometry x="541.27" y="592.5" width="68" height="28" as="geometry" />
        </mxCell>
        <mxCell id="7x98fHGfV2n_sCn_JHf2-51" style="edgeStyle=orthogonalEdgeStyle;rounded=0;orthogonalLoop=1;jettySize=auto;html=1;endArrow=none;startFill=0;" edge="1" parent="1" source="7x98fHGfV2n_sCn_JHf2-54" target="7x98fHGfV2n_sCn_JHf2-58">
          <mxGeometry relative="1" as="geometry">
            <Array as="points">
              <mxPoint x="644" y="558" />
            </Array>
          </mxGeometry>
        </mxCell>
        <mxCell id="7x98fHGfV2n_sCn_JHf2-53" style="edgeStyle=orthogonalEdgeStyle;rounded=0;orthogonalLoop=1;jettySize=auto;html=1;endArrow=none;startFill=0;" edge="1" parent="1" source="7x98fHGfV2n_sCn_JHf2-54" target="7x98fHGfV2n_sCn_JHf2-60">
          <mxGeometry relative="1" as="geometry">
            <Array as="points">
              <mxPoint x="635" y="593" />
            </Array>
          </mxGeometry>
        </mxCell>
        <mxCell id="7x98fHGfV2n_sCn_JHf2-185" style="edgeStyle=orthogonalEdgeStyle;rounded=0;orthogonalLoop=1;jettySize=auto;html=1;endArrow=none;startFill=0;" edge="1" parent="1" source="7x98fHGfV2n_sCn_JHf2-54" target="7x98fHGfV2n_sCn_JHf2-207">
          <mxGeometry relative="1" as="geometry">
            <mxPoint x="541" y="755" as="targetPoint" />
            <Array as="points">
              <mxPoint x="741" y="475" />
              <mxPoint x="741" y="755" />
              <mxPoint x="561" y="755" />
              <mxPoint x="561" y="723" />
            </Array>
          </mxGeometry>
        </mxCell>
        <mxCell id="7x98fHGfV2n_sCn_JHf2-54" value="Comment" style="rounded=0;whiteSpace=wrap;html=1;" vertex="1" parent="1">
          <mxGeometry x="634.52" y="464" width="98" height="30" as="geometry" />
        </mxCell>
        <mxCell id="7x98fHGfV2n_sCn_JHf2-55" style="edgeStyle=orthogonalEdgeStyle;rounded=0;orthogonalLoop=1;jettySize=auto;html=1;endArrow=none;startFill=0;" edge="1" parent="1" source="7x98fHGfV2n_sCn_JHf2-56" target="7x98fHGfV2n_sCn_JHf2-54">
          <mxGeometry relative="1" as="geometry">
            <Array as="points">
              <mxPoint x="659.77" y="523" />
            </Array>
          </mxGeometry>
        </mxCell>
        <mxCell id="7x98fHGfV2n_sCn_JHf2-56" value="CID" style="ellipse;whiteSpace=wrap;html=1;" vertex="1" parent="1">
          <mxGeometry x="669.52" y="510.97" width="63" height="28" as="geometry" />
        </mxCell>
        <mxCell id="7x98fHGfV2n_sCn_JHf2-58" value="comment" style="ellipse;whiteSpace=wrap;html=1;" vertex="1" parent="1">
          <mxGeometry x="667.02" y="544" width="63" height="28" as="geometry" />
        </mxCell>
        <mxCell id="7x98fHGfV2n_sCn_JHf2-60" value="timestamp" style="ellipse;whiteSpace=wrap;html=1;" vertex="1" parent="1">
          <mxGeometry x="662.02" y="579" width="68" height="28" as="geometry" />
        </mxCell>
        <mxCell id="7x98fHGfV2n_sCn_JHf2-61" value="" style="endArrow=none;html=1;rounded=0;" edge="1" parent="1">
          <mxGeometry width="50" height="50" relative="1" as="geometry">
            <mxPoint x="409.27" y="537" as="sourcePoint" />
            <mxPoint x="438.27" y="537" as="targetPoint" />
          </mxGeometry>
        </mxCell>
        <mxCell id="7x98fHGfV2n_sCn_JHf2-64" value="" style="endArrow=none;html=1;rounded=0;" edge="1" parent="1">
          <mxGeometry width="50" height="50" relative="1" as="geometry">
            <mxPoint x="563.27" y="542.43" as="sourcePoint" />
            <mxPoint x="592.27" y="542.43" as="targetPoint" />
          </mxGeometry>
        </mxCell>
        <mxCell id="7x98fHGfV2n_sCn_JHf2-81" style="edgeStyle=orthogonalEdgeStyle;rounded=0;orthogonalLoop=1;jettySize=auto;html=1;endArrow=none;startFill=0;" edge="1" parent="1" source="7x98fHGfV2n_sCn_JHf2-84" target="7x98fHGfV2n_sCn_JHf2-88">
          <mxGeometry relative="1" as="geometry">
            <Array as="points">
              <mxPoint x="781" y="554" />
            </Array>
            <mxPoint x="781.0000000000002" y="525" as="sourcePoint" />
          </mxGeometry>
        </mxCell>
        <mxCell id="7x98fHGfV2n_sCn_JHf2-82" style="edgeStyle=orthogonalEdgeStyle;rounded=0;orthogonalLoop=1;jettySize=auto;html=1;endArrow=none;startFill=0;exitX=0;exitY=1;exitDx=0;exitDy=0;" edge="1" parent="1" source="7x98fHGfV2n_sCn_JHf2-84" target="7x98fHGfV2n_sCn_JHf2-89">
          <mxGeometry relative="1" as="geometry">
            <Array as="points">
              <mxPoint x="771" y="588" />
            </Array>
            <mxPoint x="772.0000000000002" y="525" as="sourcePoint" />
          </mxGeometry>
        </mxCell>
        <mxCell id="7x98fHGfV2n_sCn_JHf2-190" style="edgeStyle=orthogonalEdgeStyle;rounded=0;orthogonalLoop=1;jettySize=auto;html=1;exitX=1;exitY=0.5;exitDx=0;exitDy=0;endArrow=none;startFill=0;" edge="1" parent="1" source="7x98fHGfV2n_sCn_JHf2-84" target="7x98fHGfV2n_sCn_JHf2-191">
          <mxGeometry relative="1" as="geometry">
            <mxPoint x="830.9999999999998" y="695" as="targetPoint" />
            <Array as="points">
              <mxPoint x="869" y="475" />
              <mxPoint x="876" y="475" />
              <mxPoint x="876" y="645" />
            </Array>
          </mxGeometry>
        </mxCell>
        <mxCell id="7x98fHGfV2n_sCn_JHf2-84" value="Visible" style="rounded=0;whiteSpace=wrap;html=1;" vertex="1" parent="1">
          <mxGeometry x="771.27" y="467" width="98" height="30" as="geometry" />
        </mxCell>
        <mxCell id="7x98fHGfV2n_sCn_JHf2-88" value="level" style="ellipse;whiteSpace=wrap;html=1;" vertex="1" parent="1">
          <mxGeometry x="806.27" y="537" width="63" height="28" as="geometry" />
        </mxCell>
        <mxCell id="7x98fHGfV2n_sCn_JHf2-89" value="timestamp" style="ellipse;whiteSpace=wrap;html=1;" vertex="1" parent="1">
          <mxGeometry x="803.77" y="573" width="68" height="28" as="geometry" />
        </mxCell>
        <mxCell id="7x98fHGfV2n_sCn_JHf2-92" value="dob" style="ellipse;whiteSpace=wrap;html=1;" vertex="1" parent="1">
          <mxGeometry x="348.27" y="124" width="68" height="30" as="geometry" />
        </mxCell>
        <mxCell id="7x98fHGfV2n_sCn_JHf2-107" style="edgeStyle=orthogonalEdgeStyle;rounded=0;orthogonalLoop=1;jettySize=auto;html=1;endArrow=none;startFill=0;" edge="1" parent="1" source="7x98fHGfV2n_sCn_JHf2-110" target="7x98fHGfV2n_sCn_JHf2-114">
          <mxGeometry relative="1" as="geometry">
            <Array as="points">
              <mxPoint x="919" y="510" />
            </Array>
          </mxGeometry>
        </mxCell>
        <mxCell id="7x98fHGfV2n_sCn_JHf2-108" style="edgeStyle=orthogonalEdgeStyle;rounded=0;orthogonalLoop=1;jettySize=auto;html=1;endArrow=none;startFill=0;" edge="1" parent="1" source="7x98fHGfV2n_sCn_JHf2-110" target="7x98fHGfV2n_sCn_JHf2-115">
          <mxGeometry relative="1" as="geometry">
            <Array as="points">
              <mxPoint x="911" y="550" />
            </Array>
          </mxGeometry>
        </mxCell>
        <mxCell id="7x98fHGfV2n_sCn_JHf2-109" style="edgeStyle=orthogonalEdgeStyle;rounded=0;orthogonalLoop=1;jettySize=auto;html=1;endArrow=none;startFill=0;" edge="1" parent="1" source="7x98fHGfV2n_sCn_JHf2-110" target="7x98fHGfV2n_sCn_JHf2-116">
          <mxGeometry relative="1" as="geometry">
            <Array as="points">
              <mxPoint x="905" y="582" />
            </Array>
          </mxGeometry>
        </mxCell>
        <mxCell id="7x98fHGfV2n_sCn_JHf2-195" style="edgeStyle=orthogonalEdgeStyle;rounded=0;orthogonalLoop=1;jettySize=auto;html=1;exitX=1;exitY=0.5;exitDx=0;exitDy=0;endArrow=none;startFill=0;" edge="1" parent="1" source="7x98fHGfV2n_sCn_JHf2-110" target="7x98fHGfV2n_sCn_JHf2-210">
          <mxGeometry relative="1" as="geometry">
            <mxPoint x="911" y="765" as="targetPoint" />
            <Array as="points">
              <mxPoint x="1019" y="481" />
              <mxPoint x="1019" y="695" />
              <mxPoint x="896" y="695" />
            </Array>
          </mxGeometry>
        </mxCell>
        <mxCell id="7x98fHGfV2n_sCn_JHf2-110" value="Repost" style="rounded=0;whiteSpace=wrap;html=1;" vertex="1" parent="1">
          <mxGeometry x="901.29" y="466" width="98" height="30" as="geometry" />
        </mxCell>
        <mxCell id="7x98fHGfV2n_sCn_JHf2-114" value="RPID" style="ellipse;whiteSpace=wrap;html=1;" vertex="1" parent="1">
          <mxGeometry x="936.29" y="497" width="63" height="28" as="geometry" />
        </mxCell>
        <mxCell id="7x98fHGfV2n_sCn_JHf2-115" value="dec" style="ellipse;whiteSpace=wrap;html=1;" vertex="1" parent="1">
          <mxGeometry x="936.29" y="534" width="63" height="28" as="geometry" />
        </mxCell>
        <mxCell id="7x98fHGfV2n_sCn_JHf2-116" value="timestamp" style="ellipse;whiteSpace=wrap;html=1;" vertex="1" parent="1">
          <mxGeometry x="933.79" y="568" width="68" height="28" as="geometry" />
        </mxCell>
        <mxCell id="7x98fHGfV2n_sCn_JHf2-120" style="edgeStyle=orthogonalEdgeStyle;rounded=0;orthogonalLoop=1;jettySize=auto;html=1;endArrow=none;startFill=0;" edge="1" parent="1" source="7x98fHGfV2n_sCn_JHf2-119" target="7x98fHGfV2n_sCn_JHf2-28">
          <mxGeometry relative="1" as="geometry" />
        </mxCell>
        <mxCell id="7x98fHGfV2n_sCn_JHf2-119" value="create" style="rhombus;whiteSpace=wrap;html=1;" vertex="1" parent="1">
          <mxGeometry x="368.03" y="284" width="80" height="80" as="geometry" />
        </mxCell>
        <mxCell id="7x98fHGfV2n_sCn_JHf2-124" style="edgeStyle=orthogonalEdgeStyle;rounded=0;orthogonalLoop=1;jettySize=auto;html=1;endArrow=none;startFill=0;" edge="1" parent="1" source="7x98fHGfV2n_sCn_JHf2-122" target="7x98fHGfV2n_sCn_JHf2-8">
          <mxGeometry relative="1" as="geometry" />
        </mxCell>
        <mxCell id="7x98fHGfV2n_sCn_JHf2-122" value="upload" style="rhombus;whiteSpace=wrap;html=1;" vertex="1" parent="1">
          <mxGeometry x="218" y="293" width="80" height="80" as="geometry" />
        </mxCell>
        <mxCell id="7x98fHGfV2n_sCn_JHf2-127" style="edgeStyle=orthogonalEdgeStyle;rounded=0;orthogonalLoop=1;jettySize=auto;html=1;endArrow=none;startFill=0;" edge="1" parent="1" source="7x98fHGfV2n_sCn_JHf2-126" target="7x98fHGfV2n_sCn_JHf2-41">
          <mxGeometry relative="1" as="geometry" />
        </mxCell>
        <mxCell id="7x98fHGfV2n_sCn_JHf2-126" value="reaction" style="rhombus;whiteSpace=wrap;html=1;" vertex="1" parent="1">
          <mxGeometry x="520.27" y="284" width="80" height="80" as="geometry" />
        </mxCell>
        <mxCell id="7x98fHGfV2n_sCn_JHf2-129" style="edgeStyle=orthogonalEdgeStyle;rounded=0;orthogonalLoop=1;jettySize=auto;html=1;endArrow=none;startFill=0;" edge="1" parent="1" source="7x98fHGfV2n_sCn_JHf2-128" target="7x98fHGfV2n_sCn_JHf2-54">
          <mxGeometry relative="1" as="geometry" />
        </mxCell>
        <mxCell id="7x98fHGfV2n_sCn_JHf2-128" value="comment" style="rhombus;whiteSpace=wrap;html=1;" vertex="1" parent="1">
          <mxGeometry x="643.52" y="284" width="80" height="80" as="geometry" />
        </mxCell>
        <mxCell id="7x98fHGfV2n_sCn_JHf2-133" style="edgeStyle=orthogonalEdgeStyle;rounded=0;orthogonalLoop=1;jettySize=auto;html=1;endArrow=none;startFill=0;" edge="1" parent="1" source="7x98fHGfV2n_sCn_JHf2-132" target="7x98fHGfV2n_sCn_JHf2-84">
          <mxGeometry relative="1" as="geometry" />
        </mxCell>
        <mxCell id="7x98fHGfV2n_sCn_JHf2-132" value="view" style="rhombus;whiteSpace=wrap;html=1;" vertex="1" parent="1">
          <mxGeometry x="780.27" y="284" width="80" height="80" as="geometry" />
        </mxCell>
        <mxCell id="7x98fHGfV2n_sCn_JHf2-136" style="edgeStyle=orthogonalEdgeStyle;rounded=0;orthogonalLoop=1;jettySize=auto;html=1;endArrow=none;startFill=0;" edge="1" parent="1" source="7x98fHGfV2n_sCn_JHf2-134" target="7x98fHGfV2n_sCn_JHf2-110">
          <mxGeometry relative="1" as="geometry" />
        </mxCell>
        <mxCell id="7x98fHGfV2n_sCn_JHf2-134" value="repost&lt;div&gt;(share)&lt;/div&gt;" style="rhombus;whiteSpace=wrap;html=1;" vertex="1" parent="1">
          <mxGeometry x="910.29" y="282.75" width="80" height="80" as="geometry" />
        </mxCell>
        <mxCell id="7x98fHGfV2n_sCn_JHf2-139" style="edgeStyle=orthogonalEdgeStyle;rounded=0;orthogonalLoop=1;jettySize=auto;html=1;endArrow=none;startFill=0;shape=link;" edge="1" parent="1" target="7x98fHGfV2n_sCn_JHf2-1">
          <mxGeometry relative="1" as="geometry">
            <mxPoint x="109" y="360" as="sourcePoint" />
          </mxGeometry>
        </mxCell>
        <mxCell id="7x98fHGfV2n_sCn_JHf2-137" value="add" style="rhombus;whiteSpace=wrap;html=1;" vertex="1" parent="1">
          <mxGeometry x="69.27000000000004" y="294" width="80" height="80" as="geometry" />
        </mxCell>
        <mxCell id="7x98fHGfV2n_sCn_JHf2-168" value="M" style="text;html=1;align=center;verticalAlign=middle;resizable=0;points=[];autosize=1;strokeColor=none;fillColor=none;" vertex="1" parent="1">
          <mxGeometry x="266" y="368" width="30" height="30" as="geometry" />
        </mxCell>
        <mxCell id="7x98fHGfV2n_sCn_JHf2-169" value="1" style="text;html=1;align=center;verticalAlign=middle;resizable=0;points=[];autosize=1;strokeColor=none;fillColor=none;" vertex="1" parent="1">
          <mxGeometry x="406" y="263" width="30" height="30" as="geometry" />
        </mxCell>
        <mxCell id="7x98fHGfV2n_sCn_JHf2-170" value="M" style="text;html=1;align=center;verticalAlign=middle;resizable=0;points=[];autosize=1;strokeColor=none;fillColor=none;" vertex="1" parent="1">
          <mxGeometry x="406" y="360" width="30" height="30" as="geometry" />
        </mxCell>
        <mxCell id="7x98fHGfV2n_sCn_JHf2-171" value="1" style="text;html=1;align=center;verticalAlign=middle;resizable=0;points=[];autosize=1;strokeColor=none;fillColor=none;" vertex="1" parent="1">
          <mxGeometry x="258" y="264" width="30" height="30" as="geometry" />
        </mxCell>
        <mxCell id="7x98fHGfV2n_sCn_JHf2-172" value="1" style="text;html=1;align=center;verticalAlign=middle;resizable=0;points=[];autosize=1;strokeColor=none;fillColor=none;" vertex="1" parent="1">
          <mxGeometry x="549.27" y="262" width="30" height="30" as="geometry" />
        </mxCell>
        <mxCell id="7x98fHGfV2n_sCn_JHf2-173" value="M" style="text;html=1;align=center;verticalAlign=middle;resizable=0;points=[];autosize=1;strokeColor=none;fillColor=none;" vertex="1" parent="1">
          <mxGeometry x="552.77" y="360" width="30" height="30" as="geometry" />
        </mxCell>
        <mxCell id="7x98fHGfV2n_sCn_JHf2-174" value="M" style="text;html=1;align=center;verticalAlign=middle;resizable=0;points=[];autosize=1;strokeColor=none;fillColor=none;" vertex="1" parent="1">
          <mxGeometry x="686.02" y="362.75" width="30" height="30" as="geometry" />
        </mxCell>
        <mxCell id="7x98fHGfV2n_sCn_JHf2-175" value="1" style="text;html=1;align=center;verticalAlign=middle;resizable=0;points=[];autosize=1;strokeColor=none;fillColor=none;" vertex="1" parent="1">
          <mxGeometry x="686.02" y="262" width="30" height="30" as="geometry" />
        </mxCell>
        <mxCell id="7x98fHGfV2n_sCn_JHf2-176" value="M" style="text;html=1;align=center;verticalAlign=middle;resizable=0;points=[];autosize=1;strokeColor=none;fillColor=none;" vertex="1" parent="1">
          <mxGeometry x="815.27" y="254" width="30" height="30" as="geometry" />
        </mxCell>
        <mxCell id="7x98fHGfV2n_sCn_JHf2-177" value="1" style="text;html=1;align=center;verticalAlign=middle;resizable=0;points=[];autosize=1;strokeColor=none;fillColor=none;" vertex="1" parent="1">
          <mxGeometry x="815.27" y="360" width="30" height="30" as="geometry" />
        </mxCell>
        <mxCell id="7x98fHGfV2n_sCn_JHf2-178" value="1" style="text;html=1;align=center;verticalAlign=middle;resizable=0;points=[];autosize=1;strokeColor=none;fillColor=none;" vertex="1" parent="1">
          <mxGeometry x="952.79" y="254" width="30" height="30" as="geometry" />
        </mxCell>
        <mxCell id="7x98fHGfV2n_sCn_JHf2-179" value="M" style="text;html=1;align=center;verticalAlign=middle;resizable=0;points=[];autosize=1;strokeColor=none;fillColor=none;" vertex="1" parent="1">
          <mxGeometry x="952.79" y="360" width="30" height="30" as="geometry" />
        </mxCell>
        <mxCell id="7x98fHGfV2n_sCn_JHf2-180" value="M" style="text;html=1;align=center;verticalAlign=middle;resizable=0;points=[];autosize=1;strokeColor=none;fillColor=none;" vertex="1" parent="1">
          <mxGeometry x="108.5" y="274" width="30" height="30" as="geometry" />
        </mxCell>
        <mxCell id="7x98fHGfV2n_sCn_JHf2-181" value="M" style="text;html=1;align=center;verticalAlign=middle;resizable=0;points=[];autosize=1;strokeColor=none;fillColor=none;" vertex="1" parent="1">
          <mxGeometry x="108.5" y="368" width="30" height="30" as="geometry" />
        </mxCell>
        <mxCell id="7x98fHGfV2n_sCn_JHf2-187" value="has" style="rhombus;whiteSpace=wrap;html=1;" vertex="1" parent="1">
          <mxGeometry x="611.77" y="654" width="80" height="80" as="geometry" />
        </mxCell>
        <mxCell id="7x98fHGfV2n_sCn_JHf2-191" value="can" style="rhombus;whiteSpace=wrap;html=1;" vertex="1" parent="1">
          <mxGeometry x="771.27" y="645" width="80" height="80" as="geometry" />
        </mxCell>
        <mxCell id="7x98fHGfV2n_sCn_JHf2-199" value="use" style="rhombus;whiteSpace=wrap;html=1;" vertex="1" parent="1">
          <mxGeometry x="328.27" y="725" width="80" height="80" as="geometry" />
        </mxCell>
        <mxCell id="7x98fHGfV2n_sCn_JHf2-203" value="M" style="text;html=1;align=center;verticalAlign=middle;resizable=0;points=[];autosize=1;strokeColor=none;fillColor=none;" vertex="1" parent="1">
          <mxGeometry x="386.27" y="723" width="30" height="30" as="geometry" />
        </mxCell>
        <mxCell id="7x98fHGfV2n_sCn_JHf2-204" value="1" style="text;html=1;align=center;verticalAlign=middle;resizable=0;points=[];autosize=1;strokeColor=none;fillColor=none;" vertex="1" parent="1">
          <mxGeometry x="318.27" y="723" width="30" height="30" as="geometry" />
        </mxCell>
        <mxCell id="7x98fHGfV2n_sCn_JHf2-207" value="has" style="rhombus;whiteSpace=wrap;html=1;" vertex="1" parent="1">
          <mxGeometry x="451" y="683" width="80" height="80" as="geometry" />
        </mxCell>
        <mxCell id="7x98fHGfV2n_sCn_JHf2-210" value="can" style="rhombus;whiteSpace=wrap;html=1;" vertex="1" parent="1">
          <mxGeometry x="856.29" y="698" width="80" height="80" as="geometry" />
        </mxCell>
        <mxCell id="7x98fHGfV2n_sCn_JHf2-215" value="M" style="text;html=1;align=center;verticalAlign=middle;resizable=0;points=[];autosize=1;strokeColor=none;fillColor=none;" vertex="1" parent="1">
          <mxGeometry x="522.77" y="723" width="30" height="30" as="geometry" />
        </mxCell>
        <mxCell id="7x98fHGfV2n_sCn_JHf2-216" value="1" style="text;html=1;align=center;verticalAlign=middle;resizable=0;points=[];autosize=1;strokeColor=none;fillColor=none;" vertex="1" parent="1">
          <mxGeometry x="459.53" y="670" width="30" height="30" as="geometry" />
        </mxCell>
        <mxCell id="7x98fHGfV2n_sCn_JHf2-217" value="M" style="text;html=1;align=center;verticalAlign=middle;resizable=0;points=[];autosize=1;strokeColor=none;fillColor=none;" vertex="1" parent="1">
          <mxGeometry x="648.52" y="640" width="30" height="30" as="geometry" />
        </mxCell>
        <mxCell id="7x98fHGfV2n_sCn_JHf2-218" value="1" style="text;html=1;align=center;verticalAlign=middle;resizable=0;points=[];autosize=1;strokeColor=none;fillColor=none;" vertex="1" parent="1">
          <mxGeometry x="586.27" y="670" width="30" height="30" as="geometry" />
        </mxCell>
        <mxCell id="7x98fHGfV2n_sCn_JHf2-219" value="1" style="text;html=1;align=center;verticalAlign=middle;resizable=0;points=[];autosize=1;strokeColor=none;fillColor=none;" vertex="1" parent="1">
          <mxGeometry x="800.27" y="615" width="30" height="30" as="geometry" />
        </mxCell>
        <mxCell id="7x98fHGfV2n_sCn_JHf2-220" value="1" style="text;html=1;align=center;verticalAlign=middle;resizable=0;points=[];autosize=1;strokeColor=none;fillColor=none;" vertex="1" parent="1">
          <mxGeometry x="785.27" y="723" width="30" height="30" as="geometry" />
        </mxCell>
        <mxCell id="7x98fHGfV2n_sCn_JHf2-221" value="M" style="text;html=1;align=center;verticalAlign=middle;resizable=0;points=[];autosize=1;strokeColor=none;fillColor=none;" vertex="1" parent="1">
          <mxGeometry x="891" y="670" width="30" height="30" as="geometry" />
        </mxCell>
        <mxCell id="7x98fHGfV2n_sCn_JHf2-223" value="1" style="text;html=1;align=center;verticalAlign=middle;resizable=0;points=[];autosize=1;strokeColor=none;fillColor=none;" vertex="1" parent="1">
          <mxGeometry x="859" y="758" width="30" height="30" as="geometry" />
        </mxCell>
        <mxCell id="7x98fHGfV2n_sCn_JHf2-224" value="" style="rounded=0;whiteSpace=wrap;html=1;fillColor=none;" vertex="1" parent="1">
          <mxGeometry x="66" y="483" width="88" height="22" as="geometry" />
        </mxCell>
        <mxCell id="7x98fHGfV2n_sCn_JHf2-225" value="" style="endArrow=none;html=1;rounded=0;" edge="1" parent="1">
          <mxGeometry width="50" height="50" relative="1" as="geometry">
            <mxPoint x="689.52" y="531.68" as="sourcePoint" />
            <mxPoint x="718.52" y="531.68" as="targetPoint" />
          </mxGeometry>
        </mxCell>
        <mxCell id="7x98fHGfV2n_sCn_JHf2-226" value="" style="endArrow=none;html=1;rounded=0;" edge="1" parent="1">
          <mxGeometry width="50" height="50" relative="1" as="geometry">
            <mxPoint x="953.29" y="517.71" as="sourcePoint" />
            <mxPoint x="982.29" y="517.71" as="targetPoint" />
          </mxGeometry>
        </mxCell>
        <mxCell id="7x98fHGfV2n_sCn_JHf2-230" style="edgeStyle=orthogonalEdgeStyle;rounded=0;orthogonalLoop=1;jettySize=auto;html=1;exitX=0;exitY=0.5;exitDx=0;exitDy=0;endArrow=none;startFill=0;" edge="1" parent="1" source="7x98fHGfV2n_sCn_JHf2-227" target="7x98fHGfV2n_sCn_JHf2-84">
          <mxGeometry relative="1" as="geometry">
            <Array as="points">
              <mxPoint x="800" y="516" />
            </Array>
          </mxGeometry>
        </mxCell>
        <mxCell id="7x98fHGfV2n_sCn_JHf2-227" value="VIS" style="ellipse;whiteSpace=wrap;html=1;" vertex="1" parent="1">
          <mxGeometry x="806.27" y="502" width="63" height="28" as="geometry" />
        </mxCell>
        <mxCell id="7x98fHGfV2n_sCn_JHf2-228" value="" style="endArrow=none;html=1;rounded=0;" edge="1" parent="1">
          <mxGeometry width="50" height="50" relative="1" as="geometry">
            <mxPoint x="826.27" y="522.7099999999999" as="sourcePoint" />
            <mxPoint x="855.27" y="522.7099999999999" as="targetPoint" />
          </mxGeometry>
        </mxCell>
        <mxCell id="7x98fHGfV2n_sCn_JHf2-231" value="" style="endArrow=none;dashed=1;html=1;rounded=0;" edge="1" parent="1">
          <mxGeometry width="50" height="50" relative="1" as="geometry">
            <mxPoint x="109" y="549.97" as="sourcePoint" />
            <mxPoint x="142" y="550" as="targetPoint" />
          </mxGeometry>
        </mxCell>
        <mxCell id="7x98fHGfV2n_sCn_JHf2-233" value="" style="rhombus;whiteSpace=wrap;html=1;fillColor=none;" vertex="1" parent="1">
          <mxGeometry x="74" y="301" width="70" height="66" as="geometry" />
        </mxCell>
      </root>
    </mxGraphModel>
  </diagram>
</mxfile>
